<?xml version="1.0" encoding="UTF-8" standalone="no"?>
<!DOCTYPE svg PUBLIC "-//W3C//DTD SVG 1.1//EN" "http://www.w3.org/Graphics/SVG/1.1/DTD/svg11.dtd">
<svg xmlns="http://www.w3.org/2000/svg" version="1.1" width="45" height="45">
  <path
     d="M 22.5,23 C 21.19,23 20.16,23.35 19.4,24.05 C 18.65,24.75 18.28,25.72 18.28,26.95 C 18.28,28.18 18.65,29.15 19.4,29.85 C 20.16,30.55 21.19,30.9 22.5,30.9 C 23.81,30.9 24.85,30.55 25.6,29.84 C 26.36,29.14 26.74,28.17 26.74,26.95 C 26.74,25.72 26.36,24.75 25.61,24.05 C 24.86,23.35 23.82,23 22.5,23 L 22.5,23 z
     M 19.74,21.82 C 18.55,21.53 17.63,20.98 16.97,20.17 C 16.31,19.36 15.98,18.37 15.98,17.2 C 15.98,15.57 16.56,14.28 17.72,13.33 C 18.88,12.39 20.48,11.91 22.5,11.91 C 24.53,11.91 26.13,12.39 27.29,13.33 C 28.44,14.28 29.02,15.57 29.02,17.2 C 29.02,18.37 28.69,19.36 28.03,20.17 C 27.37,20.98 26.45,21.53 25.28,21.82 C 26.61,22.13 27.64,22.74 28.39,23.64 C 29.13,24.54 29.5,25.65 29.5,26.95 C 29.5,28.93 28.9,30.45 27.69,31.5 C 26.48,32.56 24.75,33.09 22.5,33.09 C 20.25,33.09 18.52,32.56 17.31,31.5 C 16.1,30.45 15.5,28.93 15.5,26.95 C 15.5,25.65 15.87,24.54 16.62,23.64 C 17.37,22.74 18.41,22.13 19.74,21.82 L 19.74,21.82 z
     M 18.73,17.46 C 18.73,18.52 19.06,19.34 19.72,19.94 C 20.38,20.53 21.31,20.83 22.5,20.83 C 23.68,20.83 24.61,20.53 25.28,19.94 C 25.95,19.34 26.29,18.52 26.29,17.46 C 26.29,16.4 25.95,15.58 25.28,14.99 C 24.61,14.39 23.68,14.1 22.5,14.1 C 21.31,14.1 20.38,14.39 19.72,14.99 C 19.06,15.58 18.73,16.4 18.73,17.46 L 18.73,17.46 z "
     style="fill:#000000; fill-opacity:1; fill-rule:evenodd; stroke:none;" />
</svg>
