<?xml version="1.0" encoding="UTF-8" standalone="no"?>
<!DOCTYPE svg PUBLIC "-//W3C//DTD SVG 1.1//EN" "http://www.w3.org/Graphics/SVG/1.1/DTD/svg11.dtd">
<svg xmlns="http://www.w3.org/2000/svg" version="1.1" width="45" height="45">
  <path
     d="M 16.76,12.1 L 27.6,12.1 L 27.6,14.42 L 19.29,14.42 L 19.29,19.42 C 19.69,19.29 20.09,19.18 20.49,19.12 C 20.89,19.05 21.29,19.01 21.69,19.01 C 23.97,19.01 25.78,19.64 27.11,20.89 C 28.44,22.14 29.1,23.83 29.1,25.96 C 29.1,28.16 28.42,29.86 27.05,31.08 C 25.69,32.3 23.76,32.9 21.27,32.9 C 20.41,32.9 19.54,32.83 18.65,32.69 C 17.76,32.54 16.84,32.32 15.9,32.03 L 15.9,29.25 C 16.72,29.7 17.56,30.03 18.44,30.25 C 19.31,30.47 20.24,30.58 21.21,30.58 C 22.79,30.58 24.04,30.17 24.96,29.34 C 25.88,28.51 26.34,27.38 26.34,25.96 C 26.34,24.54 25.88,23.41 24.96,22.58 C 24.04,21.75 22.79,21.34 21.21,21.34 C 20.48,21.34 19.74,21.42 19.01,21.58 C 18.27,21.75 17.52,22 16.76,22.35 L 16.76,12.1 z "
     style="fill:#000000; fill-opacity:1; fill-rule:evenodd; stroke:none;" />
</svg>
