<?xml version="1.0" encoding="UTF-8" standalone="no"?>
<!DOCTYPE svg PUBLIC "-//W3C//DTD SVG 1.1//EN" "http://www.w3.org/Graphics/SVG/1.1/DTD/svg11.dtd">
<svg xmlns="http://www.w3.org/2000/svg" version="1.1" width="45" height="45">
  <path
     d="M 22.74,21.39 C 21.5,21.39 20.52,21.81 19.79,22.66 C 19.07,23.5 18.71,24.67 18.71,26.14 C 18.71,27.61 19.07,28.77 19.79,29.62 C 20.52,30.48 21.5,30.9 22.74,30.9 C 23.98,30.9 24.96,30.48 25.69,29.62 C 26.41,28.77 26.77,27.61 26.77,26.14 C 26.77,24.67 26.41,23.5 25.69,22.66 C 24.96,21.81 23.98,21.39 22.74,21.39 L 22.74,21.39 z M 28.22,12.73 L 28.22,15.25 C 27.53,14.92 26.83,14.67 26.12,14.5 C 25.42,14.32 24.72,14.24 24.02,14.24 C 22.2,14.24 20.81,14.85 19.85,16.08 C 18.89,17.31 18.34,19.17 18.2,21.66 C 18.74,20.87 19.41,20.26 20.22,19.83 C 21.03,19.41 21.93,19.2 22.9,19.2 C 24.95,19.2 26.57,19.82 27.76,21.06 C 28.95,22.31 29.55,24 29.55,26.14 C 29.55,28.24 28.93,29.92 27.69,31.19 C 26.45,32.46 24.8,33.09 22.74,33.09 C 20.38,33.09 18.57,32.18 17.33,30.38 C 16.08,28.57 15.45,25.94 15.45,22.51 C 15.45,19.28 16.22,16.71 17.75,14.79 C 19.28,12.87 21.34,11.91 23.92,11.91 C 24.61,11.91 25.31,11.98 26.01,12.12 C 26.72,12.25 27.46,12.46 28.22,12.73 L 28.22,12.73 z "
     style="fill:#000000; fill-opacity:1; fill-rule:evenodd; stroke:none;" />
</svg>

