<?xml version="1.0" encoding="UTF-8" standalone="no"?>
<!DOCTYPE svg PUBLIC "-//W3C//DTD SVG 1.1//EN" "http://www.w3.org/Graphics/SVG/1.1/DTD/svg11.dtd">
<svg xmlns="http://www.w3.org/2000/svg" version="1.1" width="45" height="45">
  <path
     d="M 25.01,21.69 C 26.33,21.97 27.36,22.56 28.11,23.45 C 28.85,24.34 29.22,25.45 29.22,26.76 C 29.22,28.77 28.53,30.33 27.14,31.43 C 25.76,32.54 23.79,33.09 21.24,33.09 C 20.38,33.09 19.5,33 18.59,32.84 C 17.68,32.67 16.75,32.41 15.78,32.08 L 15.78,29.41 C 16.55,29.86 17.38,30.19 18.3,30.42 C 19.21,30.65 20.16,30.76 21.15,30.76 C 22.89,30.76 24.2,30.42 25.11,29.74 C 26.02,29.06 26.47,28.06 26.47,26.76 C 26.47,25.56 26.05,24.61 25.21,23.94 C 24.36,23.26 23.19,22.92 21.69,22.92 L 19.31,22.92 L 19.31,20.65 L 21.8,20.65 C 23.15,20.65 24.19,20.38 24.91,19.83 C 25.63,19.29 25.99,18.51 25.99,17.49 C 25.99,16.44 25.62,15.64 24.88,15.08 C 24.14,14.52 23.07,14.24 21.69,14.24 C 20.93,14.24 20.12,14.32 19.25,14.48 C 18.39,14.65 17.43,14.9 16.4,15.25 L 16.4,12.79 C 17.44,12.49 18.43,12.28 19.34,12.13 C 20.26,11.98 21.12,11.91 21.93,11.91 C 24.03,11.91 25.69,12.39 26.91,13.34 C 28.13,14.29 28.74,15.58 28.74,17.2 C 28.74,18.33 28.42,19.29 27.77,20.07 C 27.12,20.85 26.2,21.39 25.01,21.69 L 25.01,21.69 z "
     style="fill:#000000; fill-opacity:1; stroke:none;" />
</svg>
