<?xml version="1.0" encoding="UTF-8" standalone="no"?>
<!DOCTYPE svg PUBLIC "-//W3C//DTD SVG 1.1//EN" "http://www.w3.org/Graphics/SVG/1.1/DTD/svg11.dtd">
<svg xmlns="http://www.w3.org/2000/svg" version="1.1" width="45" height="45">
  <path
     d="M 19.34,30.57 L 28.98,30.57 L 28.98,32.89 L 16.02,32.89 L 16.02,30.57 C 17.07,29.48 18.5,28.03 20.31,26.2 C 22.11,24.37 23.25,23.19 23.72,22.66 C 24.6,21.67 25.22,20.83 25.57,20.14 C 25.92,19.45 26.1,18.78 26.1,18.11 C 26.1,17.03 25.72,16.14 24.95,15.46 C 24.19,14.78 23.2,14.43 21.98,14.43 C 21.11,14.43 20.2,14.58 19.24,14.88 C 18.28,15.19 17.25,15.64 16.16,16.25 L 16.16,13.46 C 17.27,13.02 18.31,12.68 19.27,12.45 C 20.24,12.22 21.12,12.11 21.93,12.11 C 24.04,12.11 25.73,12.64 26.98,13.7 C 28.24,14.75 28.87,16.17 28.87,17.93 C 28.87,18.77 28.71,19.57 28.4,20.32 C 28.08,21.07 27.51,21.96 26.68,22.98 C 26.46,23.24 25.73,24.01 24.51,25.27 C 23.29,26.53 21.57,28.3 19.34,30.57 L 19.34,30.57 z "
     style="fill:#000000; fill-opacity:1; stroke:none;" />
</svg>
