<?xml version="1.0" encoding="UTF-8" standalone="no"?>
<!-- Created with Inkscape (http://www.inkscape.org/) -->

<svg
   xmlns:dc="http://purl.org/dc/elements/1.1/"
   xmlns:cc="http://creativecommons.org/ns#"
   xmlns:rdf="http://www.w3.org/1999/02/22-rdf-syntax-ns#"
   xmlns:svg="http://www.w3.org/2000/svg"
   xmlns="http://www.w3.org/2000/svg"
   version="1.0"
   width="45"
   height="45"
   id="svg3128">
  <defs
     id="defs3130" />
  <metadata
     id="metadata3133">
    <rdf:RDF>
      <cc:Work
         rdf:about="">
        <dc:format>image/svg+xml</dc:format>
        <dc:type
           rdf:resource="http://purl.org/dc/dcmitype/StillImage" />
        <dc:title></dc:title>
      </cc:Work>
    </rdf:RDF>
  </metadata>
  <g
     id="layer1">
    <path
       d="M 22.028958,36 C 11.528958,35 5.5289585,28 6.0289585,7 L 29.028958,7 c 0,9 -10,6.5 -8,21"
       id="path3491"
       style="fill:#ffdc00;fill-opacity:1;fill-rule:evenodd;stroke:#000000;stroke-width:1.5;stroke-linecap:round;stroke-linejoin:miter;stroke-miterlimit:4;stroke-opacity:1;stroke-dasharray:none" />
    <path
       d="m 20.028958,28 c -0.384461,-2.911278 5.552936,-7.368624 8,-9 3,-2 2.819198,-4.342892 5,-4 1.04172,0.944016 -1.413429,3.037549 0,3 1,0 -0.187332,-1.231727 1,-2 1,0 4.003161,-0.999999 4,4 0,2 -6,12 -6,12 0,0 -1.885866,1.902129 -2,3.5 0.726047,0.994369 0.5,2 0.5,3 -1,1 -3,-2.5 -3,-2.5 l -2,0 c 0,0 -0.781781,1.991926 -2.5,3 -1,0 -1,-3 -1,-3"
       id="path3495"
       style="fill:#ffdc00;fill-opacity:1;fill-rule:evenodd;stroke:#000000;stroke-width:1.5;stroke-linecap:round;stroke-linejoin:round;stroke-miterlimit:4;stroke-opacity:1;stroke-dasharray:none" />
    <path
       d="m 9,23.5 a 0.5,0.5 0 1 1 -1,0 0.5,0.5 0 1 1 1,0 z"
       transform="matrix(-1,0,0,-1,43.528958,44)"
       id="path3499"
       style="fill:#000000;fill-opacity:1;stroke:#000000;stroke-width:1.5;stroke-linecap:round;stroke-linejoin:round;stroke-miterlimit:4;stroke-opacity:1;stroke-dasharray:none" />
    <path
       d="m 15,15.5 a 0.5,1.5 0 1 1 -1,0 0.5,1.5 0 1 1 1,0 z"
       transform="matrix(-0.866025,-0.5,0.5,-0.866025,34.336326,51.173394)"
       id="path3501"
       style="fill:#000000;fill-opacity:1;stroke:#000000;stroke-width:1.50000048;stroke-linecap:round;stroke-linejoin:round;stroke-miterlimit:4;stroke-opacity:1;stroke-dasharray:none" />
    <path
       d="m 7.0289585,7 c -1,20 5.4999995,27.5 11.9999995,28.5"
       id="path8049"
       style="fill:none;stroke:#000000;stroke-width:1;stroke-linecap:round;stroke-linejoin:miter;stroke-miterlimit:4;stroke-opacity:1;stroke-dasharray:none" />
  </g>
</svg>
